<svg
  xmlns="http://www.w3.org/2000/svg"
  width="1380"
  height="219"
  viewBox="0 0 1380 219"
  fill="none"
>
  <path
    d="M104.969 0.264282C166.212 0.264282 200.127 39.2733 203.745 92.29L164.238 93.9557C161.277 62.609 142.839 36.9413 104.969 36.9413C68.0925 36.9413 43.7254 64.9488 43.7254 109.296C43.7254 153.643 68.0925 181.651 104.969 181.651C142.832 181.651 161.27 155.975 164.238 124.636L203.745 126.302C200.127 179.652 166.212 218.327 104.969 218.327C46.0358 218.327 0.927735 173.98 0.927735 109.296C0.920085 44.6114 46.0282 0.264282 104.969 0.264282Z"
  ></path>
  <path
    d="M319.362 218.591C258.777 218.591 213.998 174.244 213.998 109.559C213.998 44.8748 258.777 0.52771 319.362 0.52771C379.619 0.52771 424.398 44.8748 424.398 109.559C424.39 174.244 379.611 218.591 319.362 218.591ZM319.362 37.2048C281.17 37.2048 256.803 65.5453 256.803 109.559C256.803 153.574 281.17 181.914 319.362 181.914C357.554 181.914 381.922 153.574 381.922 109.559C381.914 65.5531 357.554 37.2048 319.362 37.2048Z"
  ></path>
  <path
    d="M477.371 0.264286V182.325H591.189V218.32H434.65V0.256531L477.371 0.264286Z"
  ></path>
  <path
    d="M644.162 0.264286V182.325H757.98V218.32H601.441V0.256531L644.162 0.264286Z"
  ></path>
  <path d="M810.961 0.264282V218.327H768.24V0.264282H810.961Z"></path>
  <path
    d="M821.213 0.264282H902.562C971.941 0.264282 1015.01 41.1095 1015.01 109.296C1015.01 177.482 971.941 218.327 902.562 218.327H821.213V0.264282ZM899.823 183.712C945.283 183.712 970.921 156.022 970.921 108.948C970.921 62.5625 945.283 34.8727 899.823 34.8727H863.934V183.704H899.823V183.712Z"
  ></path>
  <path
    d="M1186.93 218.327H1025.94V0.264282H1183.85V36.2595H1067.99V89.2142H1158.9V124.869H1067.99V182.325H1186.93V218.327Z"
  ></path>
  <path
    d="M1336.25 218.327C1331.81 212.439 1329.08 197.564 1327.37 173.33C1325.67 148.754 1314.73 137.683 1290.11 137.683H1239.53V218.327H1197.49V0.264282H1294.89C1349.93 0.264282 1376.93 26.2264 1376.93 66.7229C1376.93 99.6037 1355.73 118.639 1329.42 122.103C1354.03 126.945 1366.68 141.487 1369.06 167.1C1371.8 199.292 1372.83 210.363 1380 218.327H1336.25ZM1289.08 103.764C1320.18 103.764 1334.55 93.3824 1334.55 69.8452C1334.55 48.0358 1320.19 35.2291 1289.08 35.2291H1239.53V103.764H1289.08Z"
  ></path>
  <path
    d="M363.315 108.42V110.241L362.497 110.272C329.086 111.729 321.726 119.174 320.296 153.015L320.258 153.845H318.475L318.444 153.015C317.006 119.182 309.646 111.729 276.236 110.272L275.417 110.241V108.42L276.236 108.389C309.638 106.933 317.006 99.4878 318.444 65.6461L318.475 64.8171H320.258L320.296 65.6461C321.734 99.48 329.094 106.933 362.497 108.389L363.315 108.42Z"
  ></path>
</svg>
