<svg xmlns="http://www.w3.org/2000/svg" width="14" height="14" viewBox="0 0 14 14" fill="none" style="">
                      <path d="M11.0246 13.2545C10.9263 13.2549 10.8305 13.2238 10.7507 13.1657L6.99927 10.4072L3.24788 13.1657C3.16773 13.2247 3.07118 13.2563 2.97217 13.2559C2.87316 13.2556 2.77684 13.2233 2.69711 13.1637C2.61739 13.1042 2.55841 13.0204 2.52869 12.9247C2.49897 12.8289 2.50005 12.726 2.53179 12.6308L3.99489 8.23542L0.202955 5.59792C0.120819 5.54085 0.0588275 5.45864 0.026038 5.3633C-0.00675142 5.26795 -0.00862046 5.16447 0.020704 5.06797C0.0500285 4.97147 0.10901 4.88701 0.18903 4.82693C0.26905 4.76686 0.365916 4.7343 0.465474 4.73404H5.14356L6.55532 0.327365C6.58574 0.232227 6.64508 0.149303 6.72483 0.0904908C6.80459 0.0316785 6.90066 0 6.99927 0C7.09788 0 7.19395 0.0316785 7.27371 0.0904908C7.35347 0.149303 7.41281 0.232227 7.44322 0.327365L8.85499 4.73552H13.5331C13.6328 4.73547 13.7298 4.76779 13.8101 4.82776C13.8903 4.88772 13.9496 4.97217 13.9791 5.06875C14.0086 5.16532 14.0068 5.26894 13.9741 5.36443C13.9413 5.45992 13.8793 5.54226 13.797 5.5994L10.0037 8.23542L11.4659 12.6297C11.4896 12.7008 11.4962 12.7766 11.4853 12.8509C11.4744 12.9252 11.4462 12.9958 11.4031 13.0568C11.36 13.1179 11.3032 13.1676 11.2374 13.202C11.1715 13.2364 11.0986 13.2544 11.0246 13.2545Z" fill="#F68D2A" style=""></path>
                    </svg>
